<svg version="1.1" id="Layer_1" xmlns="http://www.w3.org/2000/svg" xmlns:xlink="http://www.w3.org/1999/xlink" x="0px" y="0px"
	 width="100%" viewBox="0 0 512 512" enable-background="new 0 0 512 512" xml:space="preserve">
<path fill="#000000" opacity="1.000000" stroke="none" 
	d="
M1.000000,183.000000 
	C1.000000,122.000000 1.000000,61.500000 1.000000,1.000000 
	C171.666672,1.000000 342.333344,1.000000 513.000000,1.000000 
	C513.000000,171.666672 513.000000,342.333344 513.000000,513.000000 
	C342.333344,513.000000 171.666672,513.000000 1.000000,513.000000 
	C1.000000,403.166656 1.000000,293.333344 1.000000,183.000000 
M240.147537,418.882904 
	C238.926666,425.006500 237.611755,431.113922 236.556427,437.265930 
	C236.316956,438.661865 236.445450,440.868927 237.317871,441.576233 
	C240.827820,444.422119 244.695908,446.826263 248.840103,449.674286 
	C248.840103,439.568207 248.840103,430.277802 248.975281,420.060272 
	C248.975281,405.822876 248.975281,391.585510 248.975281,377.267700 
	C244.206406,377.267700 240.004440,377.267700 235.569839,377.267700 
	C239.352859,390.812683 242.272141,404.157532 240.147537,418.882904 
M176.974792,473.924774 
	C176.974792,476.488922 176.974792,479.053101 176.974792,481.790710 
	C185.210999,479.034576 185.210999,479.034576 184.955490,471.199188 
	C184.077957,462.183411 179.510773,455.631622 171.227722,452.157043 
	C169.016266,451.229370 165.607727,451.357422 163.442032,452.417328 
	C151.480560,458.271301 139.440018,458.685455 127.681892,452.747711 
	C123.004471,450.385712 119.649101,450.999634 115.268761,453.941254 
	C108.658447,458.496948 105.082047,464.704224 105.000183,472.811798 
	C104.937019,479.067993 106.031914,480.244446 113.190109,481.272614 
	C113.190109,478.620392 113.190109,476.022308 113.190109,473.360291 
	C118.616142,473.360291 123.660660,473.360291 129.004990,473.360291 
	C129.004990,477.357147 128.790970,481.017609 129.127228,484.626831 
	C129.237045,485.805420 130.711914,487.740692 131.678055,487.814392 
	C138.781036,488.355988 145.942719,489.043549 153.028625,488.650970 
	C161.026581,488.207855 160.992813,487.738037 161.006516,479.533417 
	C161.010117,477.372101 161.077698,475.210907 162.033417,473.009094 
	C166.983521,473.022095 171.933609,473.035126 176.974792,473.924774 
M377.378448,247.209579 
	C374.717255,251.299774 371.147858,255.073288 369.587891,259.547455 
	C366.535858,268.300873 368.663574,271.636353 377.207336,273.626740 
	C377.207336,270.774200 377.207336,268.026611 377.207336,265.383942 
	C382.719482,265.383942 387.773315,265.383942 393.204865,265.383942 
	C393.204865,270.367645 393.204865,274.971069 393.204865,280.203064 
	C403.908325,280.203064 414.212708,280.203064 425.121460,280.203064 
	C425.121460,274.626221 425.121460,269.837616 426.040405,265.011658 
	C430.969330,265.011658 435.898285,265.011658 440.828125,265.011658 
	C440.981812,268.378296 441.105316,271.083618 441.292999,275.195465 
	C444.503815,272.541687 448.211456,271.029999 448.729950,268.782562 
	C451.101013,258.504791 444.478027,247.104279 434.618134,243.734528 
	C432.573120,243.035599 429.659851,243.114120 427.754242,244.059219 
	C416.276062,249.751968 404.605499,250.898300 393.084778,245.062088 
	C387.149017,242.055145 382.583771,242.717499 377.378448,247.209579 
M405.483124,390.844238 
	C405.644073,390.563812 405.805023,390.283386 406.572144,389.707336 
	C409.872986,385.706665 413.173828,381.705994 417.056030,377.000732 
	C398.175415,377.000732 380.416626,376.939850 362.660126,377.113800 
	C361.205811,377.128021 359.341644,378.415894 358.386719,379.662567 
	C348.159790,393.014282 338.077789,406.477020 327.341614,420.183167 
	C314.619019,431.526001 301.896393,442.868805 289.305634,454.094055 
	C290.684845,453.982819 292.575806,454.133636 294.283081,453.644043 
	C306.479340,450.146393 318.962036,447.350708 330.744751,442.766632 
	C359.582062,431.547363 384.513275,414.369415 404.998779,391.000000 
	C404.998779,391.000000 405.014496,391.021149 405.483124,390.844238 
M72.379013,59.390259 
	C61.478291,67.178207 65.852448,78.464523 65.058365,88.836288 
	C68.113571,88.836288 70.563393,88.836288 73.940277,88.970947 
	C80.439766,88.980904 86.943321,88.849045 93.437737,89.035553 
	C102.186203,89.286804 108.638313,85.627205 113.290306,78.317741 
	C117.359886,71.923409 122.475334,71.317825 128.009506,76.536964 
	C131.523224,79.850655 134.709793,83.522919 138.335434,86.700821 
	C139.910889,88.081718 142.221283,88.624146 145.000717,89.922401 
	C145.000717,87.255394 144.992935,86.106590 145.001968,84.957924 
	C145.074463,75.737862 144.669312,75.281021 135.717819,72.868462 
	C131.870819,71.831650 129.627304,69.248444 128.988342,65.223679 
	C127.985725,58.908157 125.772369,57.019485 119.464767,57.006916 
	C106.798927,56.981678 94.130531,56.866844 81.469009,57.102177 
	C78.642181,57.154720 75.839363,58.499516 72.379013,59.390259 
M377.940460,184.970978 
	C384.439911,184.980911 390.943451,184.849121 397.437836,185.035522 
	C406.186768,185.286621 412.638580,181.625198 417.291077,174.316544 
	C421.360474,167.923828 426.473053,167.318481 432.009888,172.537613 
	C435.524353,175.850449 438.710266,179.523438 442.335907,182.701263 
	C443.911285,184.082031 446.221771,184.624130 449.000732,185.921829 
	C449.000732,183.254837 448.992981,182.106018 449.001984,180.957336 
	C449.074402,171.737366 448.670105,171.281693 439.717316,168.868347 
	C435.870300,167.831329 433.627258,165.247803 432.988373,161.223206 
	C431.985931,154.908340 429.772095,153.019455 423.464386,153.006912 
	C410.798584,152.981705 398.130249,152.866852 385.468781,153.102173 
	C382.641968,153.154724 379.839172,154.499542 376.378876,155.390350 
	C365.478210,163.178391 369.852570,174.464691 369.058411,184.836304 
	C372.113708,184.836304 374.563568,184.836304 377.940460,184.970978 
M113.940277,392.970947 
	C120.439781,392.980896 126.943367,392.848999 133.437805,393.035553 
	C142.186371,393.286865 148.638382,389.627045 153.290405,382.317627 
	C157.359528,375.924072 162.472427,375.318237 168.009094,380.536865 
	C171.523682,383.849579 174.709549,387.522644 178.335144,390.700623 
	C179.910675,392.081573 182.221024,392.624176 185.000717,393.922699 
	C185.000717,391.255707 184.992920,390.106903 185.001953,388.958221 
	C185.074509,379.738098 184.668915,379.280731 175.718048,376.868530 
	C171.871094,375.831787 169.627319,373.248779 168.988342,369.223907 
	C167.985672,362.908112 165.772354,361.019501 159.464920,361.006927 
	C146.799026,360.981720 134.130600,360.866913 121.469032,361.102203 
	C118.642197,361.154755 115.839363,362.499512 112.379036,363.390259 
	C101.478271,371.178192 105.852463,382.464508 105.058357,392.836304 
	C108.113579,392.836304 110.563400,392.836304 113.940277,392.970947 
M83.938385,248.973755 
	C96.349380,248.973755 108.760376,248.973755 120.517006,248.973755 
	C122.957726,231.599625 125.305122,214.889801 127.636024,198.297394 
	C122.221100,199.036438 116.707329,200.160690 111.150627,200.444641 
	C105.398689,200.738571 99.600800,200.303345 93.831482,200.016739 
	C90.877701,199.869995 87.942406,199.351089 84.470047,198.453171 
	C78.830917,196.910065 73.191795,195.366974 67.401505,193.782501 
	C61.174904,211.725067 58.257225,229.930389 57.208893,248.836639 
	C66.162430,248.836639 74.586906,248.836639 83.938385,248.973755 
M86.080238,265.025330 
	C76.487717,265.025330 66.895195,265.025330 57.353668,265.025330 
	C56.509548,285.302704 68.186165,331.237579 76.693436,341.728241 
	C86.111725,332.469116 96.985756,325.369659 109.777458,319.941071 
	C115.824883,318.056549 121.872314,316.172058 127.390030,314.452637 
	C125.096786,297.919464 122.840057,281.649475 120.553192,265.162201 
	C109.544350,265.162201 98.277168,265.162201 86.080238,265.025330 
M265.025574,424.917511 
	C265.025574,432.944855 265.025574,440.972198 265.025574,450.585999 
	C276.467468,441.888184 286.780060,434.048828 297.752228,426.008423 
	C314.740417,412.255463 328.806549,395.939514 341.041931,377.311615 
	C315.353088,377.311615 290.341705,377.311615 265.164764,377.311615 
	C265.164764,393.077637 265.164764,408.532715 265.025574,424.917511 
M346.331390,151.171768 
	C318.095551,186.097229 326.637878,234.797226 353.669525,258.122498 
	C355.991486,248.003250 361.173706,239.751709 368.545563,234.161621 
	C363.461304,231.712265 357.589569,230.160278 353.412476,226.612854 
	C343.905151,218.538712 343.225525,208.098358 348.718262,196.727020 
	C352.847900,192.904541 353.485992,188.087692 353.068787,182.766113 
	C352.744324,178.627167 352.988892,174.442352 353.006500,170.278046 
	C353.086334,151.403000 367.442932,137.061142 386.346527,137.010300 
	C398.839600,136.976715 411.355530,136.567963 423.814789,137.218018 
	C428.817749,137.479050 434.934692,138.784775 438.376160,141.963028 
	C445.767426,148.788940 452.748932,156.130753 459.940674,163.226822 
	C466.114227,169.318268 464.923615,178.165268 465.127045,186.275284 
	C465.194275,188.956436 466.214111,192.016800 467.785492,194.190094 
	C476.415253,206.125580 473.398651,222.554443 460.651794,229.627167 
	C457.092072,231.602341 452.812225,232.279739 448.580353,233.643463 
	C457.127258,239.857010 461.934875,248.254715 464.537292,259.087189 
	C467.062592,256.127777 469.059875,253.788788 471.055359,251.448303 
	C496.145203,222.020767 494.877594,175.147934 468.226379,146.829987 
	C443.528229,120.587250 406.930176,113.358131 374.367432,128.743332 
	C363.564484,133.847473 353.743134,140.599594 346.331390,151.171768 
M82.331390,359.171783 
	C54.048435,394.154144 62.700027,442.899567 89.230637,465.736481 
	C91.191231,461.343506 92.697998,456.578125 95.302933,452.517151 
	C97.966255,448.365204 101.706635,444.904083 104.226067,442.003387 
	C99.468689,439.713470 93.594460,438.163605 89.416237,434.616150 
	C79.906822,426.542236 79.223503,416.100677 84.718353,404.726929 
	C88.849686,400.904480 89.485329,396.086395 89.068726,390.764832 
	C88.744690,386.625671 88.988876,382.440796 89.006554,378.276337 
	C89.086655,359.401917 103.444901,345.060730 122.349991,345.010223 
	C134.843475,344.976868 147.359909,344.567657 159.819519,345.218079 
	C164.822433,345.479248 170.937469,346.787842 174.380737,349.965973 
	C181.773865,356.789734 188.754120,364.133759 195.943863,371.231842 
	C202.118729,377.327972 200.918243,386.173767 201.126999,394.282471 
	C201.196030,396.963593 202.219254,400.021332 203.790237,402.195984 
	C212.416336,414.136719 209.394073,430.561188 196.643951,437.631226 
	C193.085968,439.604126 188.808533,440.279572 184.618637,441.628235 
	C193.092911,447.870209 197.953552,456.236847 200.531296,467.091705 
	C203.061539,464.127502 205.060379,461.789948 207.054840,459.448669 
	C232.270355,429.848022 230.840485,382.481812 203.886612,354.475922 
	C178.954376,328.570496 143.645645,321.520172 110.814362,336.511597 
	C99.811142,341.535889 89.836296,348.436676 82.331390,359.171783 
M42.331470,55.171696 
	C14.113627,90.072655 22.616718,138.762054 49.667454,162.127350 
	C51.991478,152.006180 57.170628,143.751556 64.546814,138.162033 
	C59.462303,135.712662 53.590248,134.160522 49.412659,130.612991 
	C39.904659,122.538971 39.226398,112.098305 44.718319,100.727051 
	C48.848701,96.904350 49.505943,92.086014 49.065182,86.765007 
	C48.749962,82.959541 49.001892,79.106926 49.004272,75.275352 
	C49.016834,55.036942 63.071102,41.012527 83.352982,41.004776 
	C95.514069,41.000134 107.699310,40.559303 119.824615,41.218014 
	C124.829636,41.489918 130.940094,42.791878 134.386444,45.969482 
	C141.783020,52.789246 148.762695,60.135693 155.946899,67.238899 
	C162.116776,73.339233 160.917953,82.183006 161.127350,90.291901 
	C161.196564,92.972198 162.225052,96.028931 163.797699,98.202499 
	C172.419830,110.119217 169.381546,126.577438 156.631287,133.637634 
	C153.069321,135.610016 148.789032,136.285156 144.570251,137.641541 
	C153.129349,143.833008 157.927216,152.240555 160.534576,163.079010 
	C163.047043,160.138336 165.048431,157.805298 167.039749,155.463699 
	C192.271973,125.792992 190.855881,78.659676 163.887070,50.480297 
	C138.988388,24.463972 102.797791,17.420895 70.370605,32.742325 
	C59.567741,37.846542 49.742123,44.596355 42.331470,55.171696 
M312.500000,264.999878 
	C296.758942,264.999878 281.017914,264.999878 265.349915,264.999878 
	C265.349915,297.363129 265.349915,329.054840 265.349915,360.996490 
	C293.312531,360.996490 320.925995,361.022156 348.538788,360.905762 
	C349.681793,360.900940 351.330719,359.840149 351.883575,358.809692 
	C362.821075,338.424866 369.837067,316.687134 373.901978,293.959686 
	C374.357300,291.413788 373.625549,290.027100 370.904297,288.697418 
	C364.554474,285.594666 358.403687,281.973846 352.540527,278.017120 
	C346.619720,274.021484 341.724121,267.616364 335.310455,265.488251 
	C328.712677,263.299011 320.823883,265.000763 312.500000,264.999878 
M208.500000,249.000214 
	C221.918945,249.000214 235.337906,249.000214 248.605560,249.000214 
	C248.605560,216.585907 248.605560,184.874359 248.605560,153.000702 
	C229.058304,153.000702 209.904709,152.938385 190.753342,153.115814 
	C189.175842,153.130432 186.984955,154.377655 186.140701,155.719894 
	C177.181381,169.963730 165.264374,180.928131 150.624115,189.152832 
	C148.618393,190.279602 146.777100,192.802002 146.130249,195.044708 
	C143.893509,202.799652 141.773392,210.642075 140.442627,218.590790 
	C138.788193,228.472855 137.962769,238.493713 136.714493,249.000214 
	C160.929749,249.000214 184.214874,249.000214 208.500000,249.000214 
M193.749329,326.710876 
	C207.121933,334.397552 217.637009,345.020020 225.992599,357.907806 
	C226.793228,359.142731 228.184052,360.797150 229.364273,360.850342 
	C235.785095,361.139740 242.225815,360.987885 248.662277,360.987885 
	C248.662277,328.689362 248.662277,296.983398 248.662277,265.416626 
	C211.298828,265.416626 174.275116,265.416626 136.245529,265.416626 
	C138.689682,281.595245 141.049530,297.215820 143.403488,312.797394 
	C161.730576,313.743866 178.231430,317.185425 193.749329,326.710876 
M278.509583,152.999390 
	C274.085419,152.999390 269.661285,152.999390 265.400696,152.999390 
	C265.400696,185.420319 265.400696,217.135574 265.400696,248.668457 
	C285.671631,248.668457 305.540070,248.668457 325.890350,248.668457 
	C317.389069,233.524429 313.101471,217.627258 313.120728,200.860321 
	C313.139984,184.117889 317.492950,168.248840 326.051178,152.999390 
	C310.054138,152.999390 294.779968,152.999390 278.509583,152.999390 
M382.515320,361.002411 
	C396.324432,361.002380 410.134338,360.925110 423.942017,361.066315 
	C426.766022,361.095215 428.579315,360.384125 429.827637,357.755066 
	C434.210876,348.523468 439.160706,339.536499 443.096283,330.122559 
	C449.024200,315.942932 452.821289,301.105408 454.942566,285.527649 
	C453.854309,285.877197 453.064423,286.028198 452.367859,286.369598 
	C433.444153,295.645020 413.680511,299.269470 392.785461,295.224365 
	C389.558746,294.599670 389.560791,296.726654 388.961243,298.961517 
	C385.254089,312.780701 381.620087,326.629791 377.416718,340.301300 
	C375.273193,347.273193 371.994965,353.896210 369.096863,361.002411 
	C373.548065,361.002411 377.535431,361.002411 382.515320,361.002411 
M317.259521,106.249741 
	C302.191711,89.708778 284.196655,76.855988 265.322632,64.502029 
	C265.322632,88.939087 265.322632,112.816689 265.322632,136.999191 
	C288.945648,136.999191 312.246124,137.028122 335.546021,136.925888 
	C336.915985,136.919891 338.281281,135.856110 340.703278,134.843826 
	C332.613403,124.972580 325.164001,115.882812 317.259521,106.249741 
M236.393295,72.964523 
	C225.997269,81.166794 215.638901,89.417496 205.183289,97.543106 
	C201.863144,100.123375 200.735733,103.193390 200.859558,107.414398 
	C200.984390,111.669296 200.204529,115.995605 199.436386,120.220703 
	C198.428482,125.764679 197.043945,131.240173 195.854233,136.597198 
	C213.760590,136.597198 231.311508,136.597198 248.740189,136.597198 
	C248.740189,112.463379 248.740189,88.734726 248.740189,64.245598 
	C244.468323,67.257790 240.723999,69.897995 236.393295,72.964523 
M327.526154,93.979752 
	C335.827118,103.822510 344.128052,113.665268 351.704651,122.649094 
	C363.855743,117.134438 376.030426,111.609077 387.926147,106.210320 
	C368.146027,85.122108 307.730927,57.125744 289.831787,60.395592 
	C301.873230,71.105927 314.449188,82.291695 327.526154,93.979752 
M120.999420,180.202667 
	C120.999420,176.595932 120.999420,172.989212 120.999420,169.342407 
	C126.650063,169.342407 131.708344,169.342407 136.826141,169.342407 
	C136.969254,172.368942 137.096786,175.066223 137.294434,179.245987 
	C140.536835,176.505188 144.204941,174.960785 144.733124,172.686996 
	C146.946671,163.157730 141.131653,152.483047 132.273270,148.347321 
	C129.227631,146.925415 126.454933,146.605850 122.972763,148.398056 
	C111.042297,154.538345 98.732857,154.506088 86.822128,148.286438 
	C83.522118,146.563187 80.790604,146.806107 77.984482,148.255142 
	C71.305519,151.704056 66.794540,157.097336 65.232002,164.527237 
	C63.401398,173.231720 65.227066,176.110794 73.111847,177.401810 
	C73.111847,174.736740 73.111847,172.122055 73.111847,169.287445 
	C78.486542,169.287445 83.537949,169.287445 89.211136,169.287445 
	C89.211136,174.272110 89.211136,178.981461 89.211136,183.979462 
	C99.230080,183.979462 108.628197,184.066147 118.019569,183.854172 
	C119.031296,183.831345 120.003883,182.074341 120.999420,180.202667 
M160.243988,435.834961 
	C172.061356,425.306763 172.958115,405.429565 161.660660,397.287323 
	C150.768982,409.317352 136.120087,409.459900 121.362656,408.967743 
	C119.800995,421.078186 121.863449,431.286133 132.717743,437.806885 
	C141.332718,442.982361 151.454422,442.176239 160.243988,435.834961 
M424.102081,190.807312 
	C413.154785,201.643646 399.056488,201.243256 384.998627,201.038193 
	C384.998627,204.702087 384.963013,207.690323 385.005188,210.677460 
	C385.142059,220.375565 392.084503,228.876022 402.477509,232.113297 
	C411.684448,234.981125 422.292908,231.129150 428.079163,223.836517 
	C434.709656,215.479874 432.828522,205.947342 432.845642,196.667542 
	C432.850983,193.763718 427.162170,189.895386 424.102081,190.807312 
M129.002930,107.578995 
	C130.102798,101.106293 127.603264,96.478989 123.347343,94.231728 
	C115.893272,97.798531 109.712631,101.904762 102.922241,103.684151 
	C96.046501,105.485909 88.567650,104.986160 80.998154,105.519516 
	C80.998154,108.519753 80.969742,111.481880 81.002968,114.443321 
	C81.166313,129.005524 96.825760,140.550934 110.882874,136.485062 
	C123.501228,132.835327 129.002319,124.350533 129.002930,107.578995 
M203.469543,77.957283 
	C210.782791,72.148636 218.096054,66.339981 225.409317,60.531322 
	C225.291489,60.112629 225.173660,59.693935 225.055832,59.275242 
	C214.494934,61.832676 203.934036,64.390114 193.164658,66.998039 
	C194.991333,72.432755 196.570160,77.130066 198.297989,82.270645 
	C200.157196,80.726959 201.545074,79.574638 203.469543,77.957283 
M63.773567,120.990852 
	C64.482239,120.538185 65.827904,120.045700 65.802475,119.638916 
	C65.500031,114.800743 64.993370,109.975342 64.521660,104.948280 
	C60.133774,105.527756 57.588524,107.754341 57.042667,111.844116 
	C56.428246,116.447662 58.704098,119.394104 63.773567,120.990852 
M100.780006,423.971863 
	C102.389626,424.328674 103.999245,424.685486 105.739006,425.071167 
	C105.355347,419.285034 105.021896,414.256104 104.688438,409.227173 
	C104.310127,408.892303 103.931816,408.557404 103.553497,408.222534 
	C101.467758,410.202850 98.639587,411.826904 97.476830,414.250122 
	C95.882072,417.573547 97.032356,421.058136 100.780006,423.971863 
M184.994293,411.876617 
	C184.799545,416.108551 184.604782,420.340454 184.397568,424.843079 
	C188.950272,425.393158 191.750473,423.002930 192.799210,419.082367 
	C193.873489,415.066437 192.494568,411.447418 188.320221,409.766754 
	C187.510422,409.440704 186.122192,410.551392 184.994293,411.876617 
M448.127594,216.138641 
	C451.292297,218.299011 453.978333,216.293030 455.070923,214.056900 
	C456.288605,211.564835 456.770264,208.002136 455.934601,205.439529 
	C455.248169,203.334610 452.164673,202.011398 449.584045,199.879379 
	C448.973572,206.134613 448.526550,210.714981 448.127594,216.138641 
M362.009796,204.818069 
	C359.376709,212.206268 362.444611,216.990143 369.648438,216.589661 
	C369.328247,211.440140 369.008759,206.302353 368.610748,199.901306 
	C366.016602,201.678833 364.219269,202.910370 362.009796,204.818069 
M152.733627,115.780418 
	C153.347382,108.555458 151.262848,105.644287 145.290176,105.388451 
	C144.956161,110.444016 144.622147,115.499580 144.268112,120.857964 
	C148.159958,121.332993 150.635300,119.673721 152.733627,115.780418 
z"/>
<path fill="#9DA884" opacity="1.000000" stroke="none" 
	d="
M313.000000,264.999878 
	C320.823883,265.000763 328.712677,263.299011 335.310455,265.488251 
	C341.724121,267.616364 346.619720,274.021484 352.540527,278.017120 
	C358.403687,281.973846 364.554474,285.594666 370.904297,288.697418 
	C373.625549,290.027100 374.357300,291.413788 373.901978,293.959686 
	C369.837067,316.687134 362.821075,338.424866 351.883575,358.809692 
	C351.330719,359.840149 349.681793,360.900940 348.538788,360.905762 
	C320.925995,361.022156 293.312531,360.996490 265.349915,360.996490 
	C265.349915,329.054840 265.349915,297.363129 265.349915,264.999878 
	C281.017914,264.999878 296.758942,264.999878 313.000000,264.999878 
z"/>
<path fill="#9DA884" opacity="1.000000" stroke="none" 
	d="
M208.000000,249.000214 
	C184.214874,249.000214 160.929749,249.000214 136.714493,249.000214 
	C137.962769,238.493713 138.788193,228.472855 140.442627,218.590790 
	C141.773392,210.642075 143.893509,202.799652 146.130249,195.044708 
	C146.777100,192.802002 148.618393,190.279602 150.624115,189.152832 
	C165.264374,180.928131 177.181381,169.963730 186.140701,155.719894 
	C186.984955,154.377655 189.175842,153.130432 190.753342,153.115814 
	C209.904709,152.938385 229.058304,153.000702 248.605560,153.000702 
	C248.605560,184.874359 248.605560,216.585907 248.605560,249.000214 
	C235.337906,249.000214 221.918945,249.000214 208.000000,249.000214 
z"/>
<path fill="#9DA884" opacity="1.000000" stroke="none" 
	d="
M193.445343,326.502838 
	C178.231430,317.185425 161.730576,313.743866 143.403488,312.797394 
	C141.049530,297.215820 138.689682,281.595245 136.245529,265.416626 
	C174.275116,265.416626 211.298828,265.416626 248.662277,265.416626 
	C248.662277,296.983398 248.662277,328.689362 248.662277,360.987885 
	C242.225815,360.987885 235.785095,361.139740 229.364273,360.850342 
	C228.184052,360.797150 226.793228,359.142731 225.992599,357.907806 
	C217.637009,345.020020 207.121933,334.397552 193.445343,326.502838 
z"/>
<path fill="#9DA884" opacity="1.000000" stroke="none" 
	d="
M279.007690,152.999390 
	C294.779968,152.999390 310.054138,152.999390 326.051178,152.999390 
	C317.492950,168.248840 313.139984,184.117889 313.120728,200.860321 
	C313.101471,217.627258 317.389069,233.524429 325.890350,248.668457 
	C305.540070,248.668457 285.671631,248.668457 265.400696,248.668457 
	C265.400696,217.135574 265.400696,185.420319 265.400696,152.999390 
	C269.661285,152.999390 274.085419,152.999390 279.007690,152.999390 
z"/>
<path fill="#9CA783" opacity="1.000000" stroke="none" 
	d="
M382.019043,361.002411 
	C377.535431,361.002411 373.548065,361.002411 369.096863,361.002411 
	C371.994965,353.896210 375.273193,347.273193 377.416718,340.301300 
	C381.620087,326.629791 385.254089,312.780701 388.961243,298.961517 
	C389.560791,296.726654 389.558746,294.599670 392.785461,295.224365 
	C413.680511,299.269470 433.444153,295.645020 452.367859,286.369598 
	C453.064423,286.028198 453.854309,285.877197 454.942566,285.527649 
	C452.821289,301.105408 449.024200,315.942932 443.096283,330.122559 
	C439.160706,339.536499 434.210876,348.523468 429.827637,357.755066 
	C428.579315,360.384125 426.766022,361.095215 423.942017,361.066315 
	C410.134338,360.925110 396.324432,361.002380 382.019043,361.002411 
z"/>
<path fill="#AEAC88" opacity="1.000000" stroke="none" 
	d="
M42.956348,54.886021 
	C49.742123,44.596355 59.567741,37.846542 70.370605,32.742325 
	C102.797791,17.420895 138.988388,24.463972 163.887070,50.480297 
	C190.855881,78.659676 192.271973,125.792992 167.039749,155.463699 
	C165.048431,157.805298 163.047043,160.138336 160.534576,163.079010 
	C157.927216,152.240555 153.129349,143.833008 144.570251,137.641541 
	C148.789032,136.285156 153.069321,135.610016 156.631287,133.637634 
	C169.381546,126.577438 172.419830,110.119217 163.797699,98.202499 
	C162.225052,96.028931 161.196564,92.972198 161.127350,90.291901 
	C160.917953,82.183006 162.116776,73.339233 155.946899,67.238899 
	C148.762695,60.135693 141.783020,52.789246 134.386444,45.969482 
	C130.940094,42.791878 124.829636,41.489918 119.824615,41.218014 
	C107.699310,40.559303 95.514069,41.000134 83.352982,41.004776 
	C63.071102,41.012527 49.016834,55.036942 49.004272,75.275352 
	C49.001892,79.106926 48.749962,82.959541 49.065182,86.765007 
	C49.505943,92.086014 48.848701,96.904350 44.048603,100.768433 
	C42.255070,97.021912 40.404476,93.283318 40.143490,89.436859 
	C39.355499,77.823441 40.017082,66.239120 42.956348,54.886021 
z"/>
<path fill="#AEAC88" opacity="1.000000" stroke="none" 
	d="
M82.956261,358.886139 
	C89.836296,348.436676 99.811142,341.535889 110.814362,336.511597 
	C143.645645,321.520172 178.954376,328.570496 203.886612,354.475922 
	C230.840485,382.481812 232.270355,429.848022 207.054840,459.448669 
	C205.060379,461.789948 203.061539,464.127502 200.531296,467.091705 
	C197.953552,456.236847 193.092911,447.870209 184.618637,441.628235 
	C188.808533,440.279572 193.085968,439.604126 196.643951,437.631226 
	C209.394073,430.561188 212.416336,414.136719 203.790237,402.195984 
	C202.219254,400.021332 201.196030,396.963593 201.126999,394.282471 
	C200.918243,386.173767 202.118729,377.327972 195.943863,371.231842 
	C188.754120,364.133759 181.773865,356.789734 174.380737,349.965973 
	C170.937469,346.787842 164.822433,345.479248 159.819519,345.218079 
	C147.359909,344.567657 134.843475,344.976868 122.349991,345.010223 
	C103.444901,345.060730 89.086655,359.401917 89.006554,378.276337 
	C88.988876,382.440796 88.744690,386.625671 89.068726,390.764832 
	C89.485329,396.086395 88.849686,400.904480 84.048645,404.768372 
	C82.255096,401.021912 80.404457,397.283356 80.143471,393.436890 
	C79.355492,381.823517 80.017105,370.239227 82.956261,358.886139 
z"/>
<path fill="#AEAC88" opacity="1.000000" stroke="none" 
	d="
M346.956238,150.886139 
	C353.743134,140.599594 363.564484,133.847473 374.367432,128.743332 
	C406.930176,113.358131 443.528229,120.587250 468.226379,146.829987 
	C494.877594,175.147934 496.145203,222.020767 471.055359,251.448303 
	C469.059875,253.788788 467.062592,256.127777 464.537292,259.087189 
	C461.934875,248.254715 457.127258,239.857010 448.580353,233.643463 
	C452.812225,232.279739 457.092072,231.602341 460.651794,229.627167 
	C473.398651,222.554443 476.415253,206.125580 467.785492,194.190094 
	C466.214111,192.016800 465.194275,188.956436 465.127045,186.275284 
	C464.923615,178.165268 466.114227,169.318268 459.940674,163.226822 
	C452.748932,156.130753 445.767426,148.788940 438.376160,141.963028 
	C434.934692,138.784775 428.817749,137.479050 423.814789,137.218018 
	C411.355530,136.567963 398.839600,136.976715 386.346527,137.010300 
	C367.442932,137.061142 353.086334,151.403000 353.006500,170.278046 
	C352.988892,174.442352 352.744324,178.627167 353.068787,182.766113 
	C353.485992,188.087692 352.847900,192.904541 348.048584,196.768417 
	C346.255127,193.021912 344.404419,189.283295 344.143616,185.436874 
	C343.356110,173.823547 344.016846,162.239197 346.956238,150.886139 
z"/>
<path fill="#9CA784" opacity="1.000000" stroke="none" 
	d="
M317.487061,106.521393 
	C325.164001,115.882812 332.613403,124.972580 340.703278,134.843826 
	C338.281281,135.856110 336.915985,136.919891 335.546021,136.925888 
	C312.246124,137.028122 288.945648,136.999191 265.322632,136.999191 
	C265.322632,112.816689 265.322632,88.939087 265.322632,64.502029 
	C284.196655,76.855988 302.191711,89.708778 317.487061,106.521393 
z"/>
<path fill="#9DA884" opacity="1.000000" stroke="none" 
	d="
M265.164764,423.987793 
	C265.164764,408.532715 265.164764,393.077637 265.164764,377.311615 
	C290.341705,377.311615 315.353088,377.311615 341.041931,377.311615 
	C328.806549,395.939514 314.740417,412.255463 297.073944,425.869202 
	C285.985352,425.149261 275.575073,424.568512 265.164764,423.987793 
z"/>
<path fill="#9CA783" opacity="1.000000" stroke="none" 
	d="
M236.686478,72.751358 
	C240.723999,69.897995 244.468323,67.257790 248.740189,64.245598 
	C248.740189,88.734726 248.740189,112.463379 248.740189,136.597198 
	C231.311508,136.597198 213.760590,136.597198 195.854233,136.597198 
	C197.043945,131.240173 198.428482,125.764679 199.436386,120.220703 
	C200.204529,115.995605 200.984390,111.669296 200.859558,107.414398 
	C200.735733,103.193390 201.863144,100.123375 205.183289,97.543106 
	C215.638901,89.417496 225.997269,81.166794 236.686478,72.751358 
z"/>
<path fill="#949E7C" opacity="1.000000" stroke="none" 
	d="
M109.018448,320.008392 
	C96.985756,325.369659 86.111725,332.469116 76.693436,341.728241 
	C68.186165,331.237579 56.509548,285.302704 57.353668,265.025330 
	C66.895195,265.025330 76.487717,265.025330 86.554489,265.485962 
	C91.658821,279.245544 96.037254,292.640320 101.047089,305.794586 
	C102.959564,310.816132 106.318626,315.286713 109.018448,320.008392 
z"/>
<path fill="#9BA682" opacity="1.000000" stroke="none" 
	d="
M327.275635,93.728607 
	C314.449188,82.291695 301.873230,71.105927 289.831787,60.395592 
	C307.730927,57.125744 368.146027,85.122108 387.926147,106.210320 
	C376.030426,111.609077 363.855743,117.134438 351.704651,122.649094 
	C344.128052,113.665268 335.827118,103.822510 327.275635,93.728607 
z"/>
<path fill="#9CA783" opacity="1.000000" stroke="none" 
	d="
M84.998756,199.000397 
	C87.942406,199.351089 90.877701,199.869995 93.831482,200.016739 
	C99.600800,200.303345 105.398689,200.738571 111.150627,200.444641 
	C116.707329,200.160690 122.221100,199.036438 127.636024,198.297394 
	C125.305122,214.889801 122.957726,231.599625 120.517006,248.973755 
	C108.760376,248.973755 96.349380,248.973755 83.471573,248.472870 
	C82.960121,246.649796 82.933182,245.326752 82.868088,244.005585 
	C82.251053,231.482040 81.529488,218.962372 81.077782,206.432922 
	C80.970604,203.460251 80.586319,199.823929 84.998756,199.000397 
z"/>
<path fill="#929D7B" opacity="1.000000" stroke="none" 
	d="
M120.997025,180.662231 
	C120.003883,182.074341 119.031296,183.831345 118.019569,183.854172 
	C108.628197,184.066147 99.230080,183.979462 89.211136,183.979462 
	C89.211136,178.981461 89.211136,174.272110 89.211136,169.287445 
	C83.537949,169.287445 78.486542,169.287445 73.111847,169.287445 
	C73.111847,172.122055 73.111847,174.736740 73.111847,177.401810 
	C65.227066,176.110794 63.401398,173.231720 65.232002,164.527237 
	C66.794540,157.097336 71.305519,151.704056 77.984482,148.255142 
	C80.790604,146.806107 83.522118,146.563187 86.822128,148.286438 
	C98.732857,154.506088 111.042297,154.538345 122.972763,148.398056 
	C126.454933,146.605850 129.227631,146.925415 132.273270,148.347321 
	C141.131653,152.483047 146.946671,163.157730 144.733124,172.686996 
	C144.204941,174.960785 140.536835,176.505188 137.294434,179.245987 
	C137.096786,175.066223 136.969254,172.368942 136.826141,169.342407 
	C131.708344,169.342407 126.650063,169.342407 120.999420,169.342407 
	C120.999420,172.989212 120.999420,176.595932 120.997025,180.662231 
z"/>
<path fill="#9CA783" opacity="1.000000" stroke="none" 
	d="
M327.956055,419.909302 
	C338.077789,406.477020 348.159790,393.014282 358.386719,379.662567 
	C359.341644,378.415894 361.205811,377.128021 362.660126,377.113800 
	C380.416626,376.939850 398.175415,377.000732 417.056030,377.000732 
	C413.173828,381.705994 409.872986,385.706665 406.080505,389.994934 
	C405.351288,390.492828 405.159821,390.739044 405.014496,391.021149 
	C405.014496,391.021149 404.998779,391.000000 404.643372,391.034210 
	C401.641815,392.414276 398.900818,393.602692 396.364594,395.130951 
	C376.684113,406.989532 355.660370,415.450012 333.165802,420.167023 
	C331.519623,420.512238 329.696777,420.014893 327.956055,419.909302 
z"/>
<path fill="#9B9570" opacity="1.000000" stroke="none" 
	d="
M113.025482,363.249329 
	C115.839363,362.499512 118.642197,361.154755 121.469032,361.102203 
	C134.130600,360.866913 146.799026,360.981720 159.464920,361.006927 
	C165.772354,361.019501 167.985672,362.908112 168.988342,369.223907 
	C169.627319,373.248779 171.871094,375.831787 175.718048,376.868530 
	C184.668915,379.280731 185.074509,379.738098 185.001953,388.958221 
	C184.992920,390.106903 185.000717,391.255707 185.000717,393.922699 
	C182.221024,392.624176 179.910675,392.081573 178.335144,390.700623 
	C174.709549,387.522644 171.523682,383.849579 168.009094,380.536865 
	C162.472427,375.318237 157.359528,375.924072 153.290405,382.317627 
	C148.638382,389.627045 142.186371,393.286865 133.437805,393.035553 
	C126.943367,392.848999 120.439781,392.980896 113.473442,392.445496 
	C113.012894,382.363129 113.019188,372.806213 113.025482,363.249329 
z"/>
<path fill="#9B9570" opacity="1.000000" stroke="none" 
	d="
M377.025330,155.249390 
	C379.839172,154.499542 382.641968,153.154724 385.468781,153.102173 
	C398.130249,152.866852 410.798584,152.981705 423.464386,153.006912 
	C429.772095,153.019455 431.985931,154.908340 432.988373,161.223206 
	C433.627258,165.247803 435.870300,167.831329 439.717316,168.868347 
	C448.670105,171.281693 449.074402,171.737366 449.001984,180.957336 
	C448.992981,182.106018 449.000732,183.254837 449.000732,185.921829 
	C446.221771,184.624130 443.911285,184.082031 442.335907,182.701263 
	C438.710266,179.523438 435.524353,175.850449 432.009888,172.537613 
	C426.473053,167.318481 421.360474,167.923828 417.291077,174.316544 
	C412.638580,181.625198 406.186768,185.286621 397.437836,185.035522 
	C390.943451,184.849121 384.439911,184.980911 377.473572,184.445496 
	C377.012878,174.363144 377.019104,164.806259 377.025330,155.249390 
z"/>
<path fill="#9B9570" opacity="1.000000" stroke="none" 
	d="
M73.025490,59.249352 
	C75.839363,58.499516 78.642181,57.154720 81.469009,57.102177 
	C94.130531,56.866844 106.798927,56.981678 119.464767,57.006916 
	C125.772369,57.019485 127.985725,58.908157 128.988342,65.223679 
	C129.627304,69.248444 131.870819,71.831650 135.717819,72.868462 
	C144.669312,75.281021 145.074463,75.737862 145.001968,84.957924 
	C144.992935,86.106590 145.000717,87.255394 145.000717,89.922401 
	C142.221283,88.624146 139.910889,88.081718 138.335434,86.700821 
	C134.709793,83.522919 131.523224,79.850655 128.009506,76.536964 
	C122.475334,71.317825 117.359886,71.923409 113.290306,78.317741 
	C108.638313,85.627205 102.186203,89.286804 93.437737,89.035553 
	C86.943321,88.849045 80.439766,88.980904 73.473434,88.445480 
	C73.012894,78.363129 73.019196,68.806244 73.025490,59.249352 
z"/>
<path fill="#939D7C" opacity="1.000000" stroke="none" 
	d="
M327.648834,420.046234 
	C329.696777,420.014893 331.519623,420.512238 333.165802,420.167023 
	C355.660370,415.450012 376.684113,406.989532 396.364594,395.130951 
	C398.900818,393.602692 401.641815,392.414276 404.653198,391.042114 
	C384.513275,414.369415 359.582062,431.547363 330.744751,442.766632 
	C318.962036,447.350708 306.479340,450.146393 294.283081,453.644043 
	C292.575806,454.133636 290.684845,453.982819 289.305634,454.094055 
	C301.896393,442.868805 314.619019,431.526001 327.648834,420.046234 
z"/>
<path fill="#ABAB83" opacity="1.000000" stroke="none" 
	d="
M82.643829,359.028961 
	C80.017105,370.239227 79.355492,381.823517 80.143471,393.436890 
	C80.404457,397.283356 82.255096,401.021912 83.737198,404.922363 
	C79.223503,416.100677 79.906822,426.542236 89.416237,434.616150 
	C93.594460,438.163605 99.468689,439.713470 104.226067,442.003387 
	C101.706635,444.904083 97.966255,448.365204 95.302933,452.517151 
	C92.697998,456.578125 91.191231,461.343506 89.230637,465.736481 
	C62.700027,442.899567 54.048435,394.154144 82.643829,359.028961 
z"/>
<path fill="#ABAB83" opacity="1.000000" stroke="none" 
	d="
M42.643909,55.028858 
	C40.017082,66.239120 39.355499,77.823441 40.143490,89.436859 
	C40.404476,93.283318 42.255070,97.021912 43.737114,100.922424 
	C39.226398,112.098305 39.904659,122.538971 49.412659,130.612991 
	C53.590248,134.160522 59.462303,135.712662 64.546814,138.162033 
	C57.170628,143.751556 51.991478,152.006180 49.667454,162.127350 
	C22.616718,138.762054 14.113627,90.072655 42.643909,55.028858 
z"/>
<path fill="#ABAB83" opacity="1.000000" stroke="none" 
	d="
M346.643799,151.028961 
	C344.016846,162.239197 343.356110,173.823547 344.143616,185.436874 
	C344.404419,189.283295 346.255127,193.021912 347.737122,196.922424 
	C343.225525,208.098358 343.905151,218.538712 353.412476,226.612854 
	C357.589569,230.160278 363.461304,231.712265 368.545563,234.161621 
	C361.173706,239.751709 355.991486,248.003250 353.669525,258.122498 
	C326.637878,234.797226 318.095551,186.097229 346.643799,151.028961 
z"/>
<path fill="#9CA783" opacity="1.000000" stroke="none" 
	d="
M109.397949,319.974731 
	C106.318626,315.286713 102.959564,310.816132 101.047089,305.794586 
	C96.037254,292.640320 91.658821,279.245544 87.019356,265.554413 
	C98.277168,265.162201 109.544350,265.162201 120.553192,265.162201 
	C122.840057,281.649475 125.096786,297.919464 127.390030,314.452637 
	C121.872314,316.172058 115.824883,318.056549 109.397949,319.974731 
z"/>
<path fill="#AEAC86" opacity="1.000000" stroke="none" 
	d="
M159.892700,435.947784 
	C151.454422,442.176239 141.332718,442.982361 132.717743,437.806885 
	C121.863449,431.286133 119.800995,421.078186 121.362656,408.967743 
	C136.120087,409.459900 150.768982,409.317352 161.660660,397.287323 
	C172.958115,405.429565 172.061356,425.306763 159.892700,435.947784 
z"/>
<path fill="#AEAC86" opacity="1.000000" stroke="none" 
	d="
M424.350220,190.572113 
	C427.162170,189.895386 432.850983,193.763718 432.845642,196.667542 
	C432.828522,205.947342 434.709656,215.479874 428.079163,223.836517 
	C422.292908,231.129150 411.684448,234.981125 402.477509,232.113297 
	C392.084503,228.876022 385.142059,220.375565 385.005188,210.677460 
	C384.963013,207.690323 384.998627,204.702087 384.998627,201.038193 
	C399.056488,201.243256 413.154785,201.643646 424.350220,190.572113 
z"/>
<path fill="#AEAC86" opacity="1.000000" stroke="none" 
	d="
M129.002930,108.058006 
	C129.002319,124.350533 123.501228,132.835327 110.882874,136.485062 
	C96.825760,140.550934 81.166313,129.005524 81.002968,114.443321 
	C80.969742,111.481880 80.998154,108.519753 80.998154,105.519516 
	C88.567650,104.986160 96.046501,105.485909 102.922241,103.684151 
	C109.712631,101.904762 115.893272,97.798531 123.347343,94.231728 
	C127.603264,96.478989 130.102798,101.106293 129.002930,108.058006 
z"/>
<path fill="#949E7C" opacity="1.000000" stroke="none" 
	d="
M84.734406,198.726776 
	C80.586319,199.823929 80.970604,203.460251 81.077782,206.432922 
	C81.529488,218.962372 82.251053,231.482040 82.868088,244.005585 
	C82.933182,245.326752 82.960121,246.649796 83.008072,248.404297 
	C74.586906,248.836639 66.162430,248.836639 57.208893,248.836639 
	C58.257225,229.930389 61.174904,211.725067 67.401505,193.782501 
	C73.191795,195.366974 78.830917,196.910065 84.734406,198.726776 
z"/>
<path fill="#ACA973" opacity="1.000000" stroke="none" 
	d="
M378.015106,246.967621 
	C382.583771,242.717499 387.149017,242.055145 393.084778,245.062088 
	C404.605499,250.898300 416.276062,249.751968 427.754242,244.059219 
	C429.659851,243.114120 432.573120,243.035599 434.618134,243.734528 
	C444.478027,247.104279 451.101013,258.504791 448.729950,268.782562 
	C448.211456,271.029999 444.503815,272.541687 441.292999,275.195465 
	C441.105316,271.083618 440.981812,268.378296 440.828125,265.011658 
	C435.898285,265.011658 430.969330,265.011658 425.154785,265.008911 
	C417.174988,263.389587 409.730042,262.638580 403.073822,259.941284 
	C394.393829,256.423920 386.338959,251.363876 378.015106,246.967621 
z"/>
<path fill="#A18A5B" opacity="1.000000" stroke="none" 
	d="
M161.115906,473.049652 
	C161.077698,475.210907 161.010117,477.372101 161.006516,479.533417 
	C160.992813,487.738037 161.026581,488.207855 153.028625,488.650970 
	C145.942719,489.043549 138.781036,488.355988 131.678055,487.814392 
	C130.711914,487.740692 129.237045,485.805420 129.127228,484.626831 
	C128.790970,481.017609 129.004990,477.357147 129.004990,473.360291 
	C123.660660,473.360291 118.616142,473.360291 113.190109,473.360291 
	C113.190109,476.022308 113.190109,478.620392 113.190109,481.272614 
	C106.031914,480.244446 104.937019,479.067993 105.000183,472.811798 
	C105.082047,464.704224 108.658447,458.496948 115.703354,454.152283 
	C122.052834,458.169556 127.564095,462.997803 133.981308,465.532013 
	C142.661987,468.960083 152.038132,470.627106 161.115906,473.049652 
z"/>
<path fill="#ABA76D" opacity="1.000000" stroke="none" 
	d="
M377.696777,247.088593 
	C386.338959,251.363876 394.393829,256.423920 403.073822,259.941284 
	C409.730042,262.638580 417.174988,263.389587 424.695312,265.027588 
	C425.121460,269.837616 425.121460,274.626221 425.121460,280.203064 
	C414.212708,280.203064 403.908325,280.203064 393.204865,280.203064 
	C393.204865,274.971069 393.204865,270.367645 393.204865,265.383942 
	C387.773315,265.383942 382.719482,265.383942 377.207336,265.383942 
	C377.207336,268.026611 377.207336,270.774200 377.207336,273.626740 
	C368.663574,271.636353 366.535858,268.300873 369.587891,259.547455 
	C371.147858,255.073288 374.717255,251.299774 377.696777,247.088593 
z"/>
<path fill="#A38F65" opacity="1.000000" stroke="none" 
	d="
M161.574661,473.029358 
	C152.038132,470.627106 142.661987,468.960083 133.981308,465.532013 
	C127.564095,462.997803 122.052834,458.169556 116.026199,454.023560 
	C119.649101,450.999634 123.004471,450.385712 127.681892,452.747711 
	C139.440018,458.685455 151.480560,458.271301 163.442032,452.417328 
	C165.607727,451.357422 169.016266,451.229370 171.227722,452.157043 
	C179.510773,455.631622 184.077957,462.183411 184.484985,471.597046 
	C181.637558,472.346008 179.260635,472.697083 176.883713,473.048157 
	C171.933609,473.035126 166.983521,473.022095 161.574661,473.029358 
z"/>
<path fill="#949E7C" opacity="1.000000" stroke="none" 
	d="
M265.095154,424.452637 
	C275.575073,424.568512 285.985352,425.149261 296.744141,425.969757 
	C286.780060,434.048828 276.467468,441.888184 265.025574,450.585999 
	C265.025574,440.972198 265.025574,432.944855 265.095154,424.452637 
z"/>
<path fill="#9CA783" opacity="1.000000" stroke="none" 
	d="
M240.353867,418.045288 
	C242.272141,404.157532 239.352859,390.812683 235.569839,377.267700 
	C240.004440,377.267700 244.206406,377.267700 248.975281,377.267700 
	C248.975281,391.585510 248.975281,405.822876 248.533661,420.492981 
	C245.512634,419.965576 242.933243,419.005432 240.353867,418.045288 
z"/>
<path fill="#97A27F" opacity="1.000000" stroke="none" 
	d="
M203.201233,78.189796 
	C201.545074,79.574638 200.157196,80.726959 198.297989,82.270645 
	C196.570160,77.130066 194.991333,72.432755 193.164658,66.998039 
	C203.934036,64.390114 214.494934,61.832676 225.055832,59.275242 
	C225.173660,59.693935 225.291489,60.112629 225.409317,60.531322 
	C218.096054,66.339981 210.782791,72.148636 203.201233,78.189796 
z"/>
<path fill="#929D7B" opacity="1.000000" stroke="none" 
	d="
M240.250702,418.464111 
	C242.933243,419.005432 245.512634,419.965576 248.466064,420.956543 
	C248.840103,430.277802 248.840103,439.568207 248.840103,449.674286 
	C244.695908,446.826263 240.827820,444.422119 237.317871,441.576233 
	C236.445450,440.868927 236.316956,438.661865 236.556427,437.265930 
	C237.611755,431.113922 238.926666,425.006500 240.250702,418.464111 
z"/>
<path fill="#928C65" opacity="1.000000" stroke="none" 
	d="
M112.702255,363.319794 
	C113.019188,372.806213 113.012894,382.363129 113.009911,392.378174 
	C110.563400,392.836304 108.113579,392.836304 105.058357,392.836304 
	C105.852463,382.464508 101.478271,371.178192 112.702255,363.319794 
z"/>
<path fill="#928C65" opacity="1.000000" stroke="none" 
	d="
M72.702255,59.319805 
	C73.019196,68.806244 73.012894,78.363129 73.009903,88.378159 
	C70.563393,88.836288 68.113571,88.836288 65.058365,88.836288 
	C65.852448,78.464523 61.478291,67.178207 72.702255,59.319805 
z"/>
<path fill="#928C65" opacity="1.000000" stroke="none" 
	d="
M376.702087,155.319870 
	C377.019104,164.806259 377.012878,174.363144 377.010040,184.378159 
	C374.563568,184.836304 372.113708,184.836304 369.058411,184.836304 
	C369.852570,174.464691 365.478210,163.178391 376.702087,155.319870 
z"/>
<path fill="#ADA983" opacity="1.000000" stroke="none" 
	d="
M63.369156,120.964050 
	C58.704098,119.394104 56.428246,116.447662 57.042667,111.844116 
	C57.588524,107.754341 60.133774,105.527756 64.521660,104.948280 
	C64.993370,109.975342 65.500031,114.800743 65.802475,119.638916 
	C65.827904,120.045700 64.482239,120.538185 63.369156,120.964050 
z"/>
<path fill="#ADA983" opacity="1.000000" stroke="none" 
	d="
M100.445992,423.756531 
	C97.032356,421.058136 95.882072,417.573547 97.476830,414.250122 
	C98.639587,411.826904 101.467758,410.202850 103.553497,408.222534 
	C103.931816,408.557404 104.310127,408.892303 104.688438,409.227173 
	C105.021896,414.256104 105.355347,419.285034 105.739006,425.071167 
	C103.999245,424.685486 102.389626,424.328674 100.445992,423.756531 
z"/>
<path fill="#ADA983" opacity="1.000000" stroke="none" 
	d="
M184.997528,411.437988 
	C186.122192,410.551392 187.510422,409.440704 188.320221,409.766754 
	C192.494568,411.447418 193.873489,415.066437 192.799210,419.082367 
	C191.750473,423.002930 188.950272,425.393158 184.397568,424.843079 
	C184.604782,420.340454 184.799545,416.108551 184.997528,411.437988 
z"/>
<path fill="#ADA983" opacity="1.000000" stroke="none" 
	d="
M448.103577,215.716980 
	C448.526550,210.714981 448.973572,206.134613 449.584045,199.879379 
	C452.164673,202.011398 455.248169,203.334610 455.934601,205.439529 
	C456.770264,208.002136 456.288605,211.564835 455.070923,214.056900 
	C453.978333,216.293030 451.292297,218.299011 448.103577,215.716980 
z"/>
<path fill="#ADA983" opacity="1.000000" stroke="none" 
	d="
M362.215881,204.479996 
	C364.219269,202.910370 366.016602,201.678833 368.610748,199.901306 
	C369.008759,206.302353 369.328247,211.440140 369.648438,216.589661 
	C362.444611,216.990143 359.376709,212.206268 362.215881,204.479996 
z"/>
<path fill="#ADA983" opacity="1.000000" stroke="none" 
	d="
M152.510742,116.110657 
	C150.635300,119.673721 148.159958,121.332993 144.268112,120.857964 
	C144.622147,115.499580 144.956161,110.444016 145.290619,105.387451 
	C151.262848,105.644287 153.347382,108.555458 152.510742,116.110657 
z"/>
<path fill="#A18A5B" opacity="1.000000" stroke="none" 
	d="
M176.929260,473.486450 
	C179.260635,472.697083 181.637558,472.346008 184.420746,471.992004 
	C185.210999,479.034576 185.210999,479.034576 176.974792,481.790710 
	C176.974792,479.053101 176.974792,476.488922 176.929260,473.486450 
z"/>
<path fill="#939D7C" opacity="1.000000" stroke="none" 
	d="
M405.248810,390.932678 
	C405.159821,390.739044 405.351288,390.492828 405.777435,390.142731 
	C405.805023,390.283386 405.644073,390.563812 405.248810,390.932678 
z"/>
</svg>